<svg width="47" height="47" viewBox="0 0 47 47" fill="none" xmlns="http://www.w3.org/2000/svg">
<mask id="path-1-outside-1_2690_46" maskUnits="userSpaceOnUse" x="0" y="0" width="47" height="47" fill="black">
<rect fill="white" width="47" height="47"/>
<path fill-rule="evenodd" clip-rule="evenodd" d="M32.7111 24C29.7666 24 27.1375 22.8076 25.2741 20.9098C26.372 18.9605 27 16.6997 27 14.2889C27 11.7289 26.2919 9.33802 25.0649 7.3097C26.9381 5.2848 29.6546 4 32.7111 4C38.456 4 43 8.53897 43 14C43 19.461 38.456 24 32.7111 24ZM14 1C17.599 1 20.8564 2.49499 23.2103 4.9106C25.6229 2.49762 28.9882 1 32.7111 1C40.0504 1 46 6.8203 46 14C46 17.599 44.505 20.8564 42.0894 23.2103C44.5024 25.6229 46 28.9882 46 32.7111C46 40.0504 40.1797 46 33 46C29.401 46 26.1436 44.505 23.7897 42.0894C21.3771 44.5024 18.0118 46 14.2889 46C6.94969 46 1.00005 40.1797 1.00005 33C1.00005 29.401 2.49503 26.1436 4.91063 23.7897C2.49763 21.3771 1 18.0118 1 14.2889C1 6.94964 6.8203 1 14 1ZM32.7111 27C35.2711 27 37.662 26.2919 39.6903 25.0649C41.7152 26.9381 43 29.6546 43 32.7111C43 38.456 38.461 43 33 43C27.539 43 23 38.456 23 32.7111C23 29.7666 24.1924 27.1375 26.0902 25.2741C28.0395 26.372 30.3003 27 32.7111 27ZM20.9098 21.7259C18.9605 20.628 16.6997 20 14.2889 20C11.729 20 9.33805 20.7081 7.30972 21.9351C5.28481 20.0619 4 17.3454 4 14.2889C4 8.54399 8.53897 4 14 4C19.461 4 24 8.54399 24 14.2889C24 17.2334 22.8076 19.8624 20.9098 21.7259ZM14.2889 43C17.3454 43 20.0619 41.7152 21.9351 39.6903C20.7081 37.662 20 35.2711 20 32.7111C20 30.3003 20.628 28.0395 21.7259 26.0902C19.8625 24.1924 17.2334 23 14.2889 23C8.54404 23 4.00005 27.539 4.00005 33C4.00005 38.461 8.54404 43 14.2889 43Z"/>
</mask>
<path fill-rule="evenodd" clip-rule="evenodd" d="M32.7111 24C29.7666 24 27.1375 22.8076 25.2741 20.9098C26.372 18.9605 27 16.6997 27 14.2889C27 11.7289 26.2919 9.33802 25.0649 7.3097C26.9381 5.2848 29.6546 4 32.7111 4C38.456 4 43 8.53897 43 14C43 19.461 38.456 24 32.7111 24ZM14 1C17.599 1 20.8564 2.49499 23.2103 4.9106C25.6229 2.49762 28.9882 1 32.7111 1C40.0504 1 46 6.8203 46 14C46 17.599 44.505 20.8564 42.0894 23.2103C44.5024 25.6229 46 28.9882 46 32.7111C46 40.0504 40.1797 46 33 46C29.401 46 26.1436 44.505 23.7897 42.0894C21.3771 44.5024 18.0118 46 14.2889 46C6.94969 46 1.00005 40.1797 1.00005 33C1.00005 29.401 2.49503 26.1436 4.91063 23.7897C2.49763 21.3771 1 18.0118 1 14.2889C1 6.94964 6.8203 1 14 1ZM32.7111 27C35.2711 27 37.662 26.2919 39.6903 25.0649C41.7152 26.9381 43 29.6546 43 32.7111C43 38.456 38.461 43 33 43C27.539 43 23 38.456 23 32.7111C23 29.7666 24.1924 27.1375 26.0902 25.2741C28.0395 26.372 30.3003 27 32.7111 27ZM20.9098 21.7259C18.9605 20.628 16.6997 20 14.2889 20C11.729 20 9.33805 20.7081 7.30972 21.9351C5.28481 20.0619 4 17.3454 4 14.2889C4 8.54399 8.53897 4 14 4C19.461 4 24 8.54399 24 14.2889C24 17.2334 22.8076 19.8624 20.9098 21.7259ZM14.2889 43C17.3454 43 20.0619 41.7152 21.9351 39.6903C20.7081 37.662 20 35.2711 20 32.7111C20 30.3003 20.628 28.0395 21.7259 26.0902C19.8625 24.1924 17.2334 23 14.2889 23C8.54404 23 4.00005 27.539 4.00005 33C4.00005 38.461 8.54404 43 14.2889 43Z" fill="url(#paint0_linear_2690_46)"/>
<path d="M25.2741 20.9098L25.0999 20.8116L25.0261 20.9426L25.1314 21.0499L25.2741 20.9098ZM25.0649 7.3097L24.9181 7.17389L24.8159 7.2844L24.8938 7.41322L25.0649 7.3097ZM32.7111 4L32.7111 4.2H32.7111L32.7111 4ZM23.2103 4.9106L23.0671 5.05019L23.2085 5.1953L23.3518 5.05201L23.2103 4.9106ZM42.0894 23.2103L41.9498 23.0671L41.8047 23.2085L41.948 23.3518L42.0894 23.2103ZM23.7897 42.0894L23.9329 41.9498L23.7915 41.8047L23.6483 41.948L23.7897 42.0894ZM1.00005 33L0.800051 33L1.00005 33ZM4.91063 23.7897L5.05021 23.9329L5.19533 23.7915L5.05204 23.6483L4.91063 23.7897ZM39.6903 25.0649L39.8261 24.9181L39.7156 24.8159L39.5868 24.8938L39.6903 25.0649ZM26.0902 25.2741L26.1884 25.0999L26.0574 25.0261L25.9501 25.1314L26.0902 25.2741ZM20.9098 21.7259L20.8117 21.9001L20.9427 21.9739L21.0499 21.8686L20.9098 21.7259ZM7.30972 21.9351L7.17391 22.0819L7.28442 22.1841L7.41324 22.1062L7.30972 21.9351ZM4 14.2889L4.2 14.2889L4.2 14.2889L4 14.2889ZM21.9351 39.6903L22.0819 39.8261L22.1841 39.7156L22.1062 39.5868L21.9351 39.6903ZM21.7259 26.0902L21.9002 26.1883L21.9739 26.0573L21.8686 25.9501L21.7259 26.0902ZM4.00005 33L4.20005 33L4.00005 33ZM25.1314 21.0499C27.0314 22.985 29.7115 24.2 32.7111 24.2V23.8C29.8217 23.8 27.2437 22.6302 25.4168 20.7697L25.1314 21.0499ZM26.8 14.2889C26.8 16.6646 26.1812 18.8917 25.0999 20.8116L25.4484 21.0079C26.5628 19.0293 27.2 16.7348 27.2 14.2889H26.8ZM24.8938 7.41322C26.1023 9.41101 26.8 11.7662 26.8 14.2889H27.2C27.2 11.6916 26.4815 9.26503 25.2361 7.20618L24.8938 7.41322ZM32.7111 3.8C29.5974 3.8 26.8281 5.10918 24.9181 7.17389L25.2117 7.44551C27.0481 5.46042 29.7119 4.2 32.7111 4.2V3.8ZM43.2 14C43.2 8.42476 38.5627 3.8 32.7111 3.8L32.7111 4.2C38.3493 4.2 42.8 8.65318 42.8 14H43.2ZM32.7111 24.2C38.5627 24.2 43.2 19.5752 43.2 14H42.8C42.8 19.3468 38.3493 23.8 32.7111 23.8V24.2ZM23.3536 4.77102C20.964 2.31886 17.6558 0.8 14 0.8V1.2C17.5422 1.2 20.7488 2.67112 23.0671 5.05019L23.3536 4.77102ZM32.7111 0.8C28.9337 0.8 25.5179 2.31976 23.0689 4.76919L23.3518 5.05201C25.7279 2.67548 29.0428 1.2 32.7111 1.2V0.8ZM46.2 14C46.2 6.70572 40.1567 0.8 32.7111 0.8V1.2C39.9441 1.2 45.8 6.93488 45.8 14H46.2ZM42.229 23.3536C44.6811 20.964 46.2 17.6558 46.2 14H45.8C45.8 17.5422 44.3289 20.7488 41.9498 23.0671L42.229 23.3536ZM46.2 32.7111C46.2 28.9337 44.6802 25.5179 42.2308 23.0689L41.948 23.3518C44.3245 25.7279 45.8 29.0428 45.8 32.7111H46.2ZM33 46.2C40.2943 46.2 46.2 40.1567 46.2 32.7111H45.8C45.8 39.9441 40.0651 45.8 33 45.8V46.2ZM23.6465 42.229C26.036 44.6811 29.3442 46.2 33 46.2V45.8C29.4578 45.8 26.2513 44.3289 23.9329 41.9498L23.6465 42.229ZM14.2889 46.2C18.0663 46.2 21.4821 44.6803 23.9311 42.2308L23.6483 41.948C21.2721 44.3245 17.9573 45.8 14.2889 45.8V46.2ZM0.800051 33C0.800051 40.2943 6.8434 46.2 14.2889 46.2V45.8C7.05598 45.8 1.20005 40.0651 1.20005 33L0.800051 33ZM4.77105 23.6465C2.3189 26.036 0.800051 29.3442 0.800051 33L1.20005 33C1.20005 29.4578 2.67116 26.2513 5.05021 23.9329L4.77105 23.6465ZM0.8 14.2889C0.8 18.0663 2.31977 21.4821 4.76922 23.9311L5.05204 23.6483C2.67549 21.2721 1.2 17.9572 1.2 14.2889H0.8ZM14 0.8C6.70572 0.8 0.8 6.84335 0.8 14.2889H1.2C1.2 7.05593 6.93488 1.2 14 1.2V0.8ZM39.5868 24.8938C37.589 26.1023 35.2338 26.8 32.7111 26.8V27.2C35.3084 27.2 37.735 26.4815 39.7938 25.2361L39.5868 24.8938ZM43.2 32.7111C43.2 29.5974 41.8908 26.8281 39.8261 24.9181L39.5545 25.2117C41.5396 27.0481 42.8 29.7119 42.8 32.7111H43.2ZM33 43.2C38.5752 43.2 43.2 38.5627 43.2 32.7111H42.8C42.8 38.3493 38.3468 42.8 33 42.8V43.2ZM22.8 32.7111C22.8 38.5627 27.4248 43.2 33 43.2V42.8C27.6532 42.8 23.2 38.3493 23.2 32.7111H22.8ZM25.9501 25.1314C24.015 27.0314 22.8 29.7115 22.8 32.7111H23.2C23.2 29.8217 24.3698 27.2437 26.2303 25.4168L25.9501 25.1314ZM32.7111 26.8C30.3354 26.8 28.1083 26.1812 26.1884 25.0999L25.9921 25.4484C27.9707 26.5628 30.2652 27.2 32.7111 27.2V26.8ZM14.2889 20.2C16.6646 20.2 18.8917 20.8188 20.8117 21.9001L21.008 21.5516C19.0293 20.4372 16.7348 19.8 14.2889 19.8V20.2ZM7.41324 22.1062C9.41104 20.8977 11.7663 20.2 14.2889 20.2V19.8C11.6917 19.8 9.26505 20.5185 7.2062 21.764L7.41324 22.1062ZM3.8 14.2889C3.8 17.4026 5.10919 20.1719 7.17391 22.0819L7.44553 21.7883C5.46043 19.9519 4.2 17.2881 4.2 14.2889L3.8 14.2889ZM14 3.8C8.42476 3.8 3.8 8.43733 3.8 14.2889L4.2 14.2889C4.2 8.65065 8.65318 4.2 14 4.2L14 3.8ZM24.2 14.2889C24.2 8.43733 19.5752 3.8 14 3.8L14 4.2C19.3468 4.2 23.8 8.65066 23.8 14.2889H24.2ZM21.0499 21.8686C22.985 19.9686 24.2 17.2885 24.2 14.2889H23.8C23.8 17.1783 22.6302 19.7563 20.7697 21.5832L21.0499 21.8686ZM21.7883 39.5545C19.9519 41.5396 17.2882 42.8 14.2889 42.8V43.2C17.4026 43.2 20.1719 41.8908 22.0819 39.8261L21.7883 39.5545ZM19.8 32.7111C19.8 35.3084 20.5185 37.735 21.764 39.7938L22.1062 39.5868C20.8977 37.589 20.2 35.2338 20.2 32.7111H19.8ZM21.5516 25.992C20.4372 27.9707 19.8 30.2652 19.8 32.7111H20.2C20.2 30.3354 20.8188 28.1083 21.9002 26.1883L21.5516 25.992ZM14.2889 23.2C17.1783 23.2 19.7564 24.3698 21.5832 26.2303L21.8686 25.9501C19.9686 24.015 17.2886 22.8 14.2889 22.8V23.2ZM4.20005 33C4.20005 27.6532 8.65071 23.2 14.2889 23.2V22.8C8.43738 22.8 3.80005 27.4248 3.80005 33L4.20005 33ZM14.2889 42.8C8.65071 42.8 4.20005 38.3468 4.20005 33L3.80005 33C3.80005 38.5752 8.43738 43.2 14.2889 43.2V42.8Z" fill="#73D2A7" mask="url(#path-1-outside-1_2690_46)"/>
<defs>
<linearGradient id="paint0_linear_2690_46" x1="15.3011" y1="46" x2="31.6989" y2="1" gradientUnits="userSpaceOnUse">
<stop stop-color="#1E4E4C"/>
<stop offset="1" stop-color="#45B47F"/>
</linearGradient>
</defs>
</svg>
