<svg width="591" height="145" viewBox="0 0 591 145" fill="none" xmlns="http://www.w3.org/2000/svg">
<mask id="path-1-outside-1_2690_48" maskUnits="userSpaceOnUse" x="0" y="0" width="142" height="142" fill="black">
<rect fill="white" width="142" height="142"/>
<path fill-rule="evenodd" clip-rule="evenodd" d="M99.6563 69.1617C90.9926 69.1617 83.3528 65.4783 78.1513 59.7254C80.55 54.4411 81.8889 48.552 81.8889 42.3432C81.8889 35.673 80.3436 29.3717 77.599 23.793C82.8041 17.6807 90.6807 13.7273 99.6563 13.7273C115.726 13.7273 128.272 26.399 128.272 41.4445C128.272 56.49 115.726 69.1617 99.6563 69.1617ZM41.4444 1C52.6412 1 62.7752 5.65098 70.0986 13.1661C77.6044 5.65919 88.0741 1.00006 99.6563 1.00006C122.489 1.00006 140.999 19.1077 140.999 41.4445C140.999 52.6412 136.349 62.7753 128.833 70.0986C136.341 77.6044 141 88.0744 141 99.6568C141 122.49 122.892 141 100.556 141C89.3588 141 79.2248 136.349 71.9014 128.834C64.3956 136.341 53.9258 141 42.3437 141C19.5105 141 1.0005 122.892 1.0005 100.556C1.0005 89.3588 5.65146 79.2248 13.1665 71.9014C5.65934 64.3956 0.999999 53.9256 1 42.3432C1 19.51 19.1076 0.999998 41.4444 1ZM99.6563 81.889C106.327 81.889 112.628 80.3437 118.207 77.5991C124.319 82.8041 128.273 90.6809 128.273 99.6568C128.273 115.726 115.601 128.273 100.556 128.273C85.51 128.273 72.8384 115.726 72.8384 99.6568C72.8384 90.993 76.5218 83.3532 82.2748 78.1517C87.5589 80.5502 93.4478 81.889 99.6563 81.889ZM59.7252 63.8483C54.4411 61.4498 48.5522 60.1111 42.3437 60.1111C35.6735 60.1111 29.3722 61.6564 23.7935 64.4009C17.6809 59.1959 13.7273 51.3191 13.7273 42.3432C13.7273 26.2739 26.3989 13.7273 41.4444 13.7273C56.49 13.7273 69.1616 26.2739 69.1616 42.3432C69.1616 51.007 65.4782 58.6468 59.7252 63.8483ZM42.3437 128.273C51.3193 128.273 59.1959 124.319 64.401 118.207C61.6564 112.628 60.1111 106.327 60.1111 99.6568C60.1111 93.448 61.45 87.5589 63.8487 82.2746C58.6471 76.5217 51.0074 72.8383 42.3437 72.8383C26.2744 72.8383 13.7278 85.51 13.7278 100.556C13.7278 115.601 26.2744 128.273 42.3437 128.273Z"/>
</mask>
<path fill-rule="evenodd" clip-rule="evenodd" d="M99.6563 69.1617C90.9926 69.1617 83.3528 65.4783 78.1513 59.7254C80.55 54.4411 81.8889 48.552 81.8889 42.3432C81.8889 35.673 80.3436 29.3717 77.599 23.793C82.8041 17.6807 90.6807 13.7273 99.6563 13.7273C115.726 13.7273 128.272 26.399 128.272 41.4445C128.272 56.49 115.726 69.1617 99.6563 69.1617ZM41.4444 1C52.6412 1 62.7752 5.65098 70.0986 13.1661C77.6044 5.65919 88.0741 1.00006 99.6563 1.00006C122.489 1.00006 140.999 19.1077 140.999 41.4445C140.999 52.6412 136.349 62.7753 128.833 70.0986C136.341 77.6044 141 88.0744 141 99.6568C141 122.49 122.892 141 100.556 141C89.3588 141 79.2248 136.349 71.9014 128.834C64.3956 136.341 53.9258 141 42.3437 141C19.5105 141 1.0005 122.892 1.0005 100.556C1.0005 89.3588 5.65146 79.2248 13.1665 71.9014C5.65934 64.3956 0.999999 53.9256 1 42.3432C1 19.51 19.1076 0.999998 41.4444 1ZM99.6563 81.889C106.327 81.889 112.628 80.3437 118.207 77.5991C124.319 82.8041 128.273 90.6809 128.273 99.6568C128.273 115.726 115.601 128.273 100.556 128.273C85.51 128.273 72.8384 115.726 72.8384 99.6568C72.8384 90.993 76.5218 83.3532 82.2748 78.1517C87.5589 80.5502 93.4478 81.889 99.6563 81.889ZM59.7252 63.8483C54.4411 61.4498 48.5522 60.1111 42.3437 60.1111C35.6735 60.1111 29.3722 61.6564 23.7935 64.4009C17.6809 59.1959 13.7273 51.3191 13.7273 42.3432C13.7273 26.2739 26.3989 13.7273 41.4444 13.7273C56.49 13.7273 69.1616 26.2739 69.1616 42.3432C69.1616 51.007 65.4782 58.6468 59.7252 63.8483ZM42.3437 128.273C51.3193 128.273 59.1959 124.319 64.401 118.207C61.6564 112.628 60.1111 106.327 60.1111 99.6568C60.1111 93.448 61.45 87.5589 63.8487 82.2746C58.6471 76.5217 51.0074 72.8383 42.3437 72.8383C26.2744 72.8383 13.7278 85.51 13.7278 100.556C13.7278 115.601 26.2744 128.273 42.3437 128.273Z" fill="url(#paint0_linear_2690_48)"/>
<path d="M78.1513 59.7254L77.5847 59.4682L77.416 59.8399L77.6897 60.1427L78.1513 59.7254ZM99.6563 69.1617L99.6563 69.7839L99.6563 69.7839L99.6563 69.1617ZM77.599 23.793L77.1253 23.3896L76.8602 23.7008L77.0407 24.0676L77.599 23.793ZM99.6563 13.7273L99.6563 14.3496L99.6563 14.3496L99.6563 13.7273ZM128.272 41.4445L128.894 41.4445L128.894 41.4445L128.272 41.4445ZM70.0986 13.1661L69.653 13.6003L70.0929 14.0518L70.5386 13.606L70.0986 13.1661ZM41.4444 1L41.4444 1.62222L41.4444 1ZM99.6563 1.00006L99.6563 1.62229L99.6563 1.00006ZM140.999 41.4445L141.622 41.4445L141.622 41.4445L140.999 41.4445ZM128.833 70.0986L128.399 69.653L127.948 70.0929L128.393 70.5386L128.833 70.0986ZM71.9014 128.834L72.347 128.4L71.9071 127.948L71.4614 128.394L71.9014 128.834ZM1.0005 100.556L1.62272 100.556L1.0005 100.556ZM13.1665 71.9014L13.6008 72.347L14.0523 71.9071L13.6065 71.4614L13.1665 71.9014ZM1 42.3432L0.377778 42.3432L1 42.3432ZM118.207 77.5991L118.61 77.1253L118.299 76.8603L117.932 77.0408L118.207 77.5991ZM82.2748 78.1517L82.532 77.5851L82.1603 77.4164L81.8575 77.6901L82.2748 78.1517ZM59.7252 63.8483L59.468 64.4149L59.8397 64.5836L60.1425 64.3099L59.7252 63.8483ZM23.7935 64.4009L23.3901 64.8747L23.7013 65.1397L24.0681 64.9593L23.7935 64.4009ZM13.7273 42.3432L13.1051 42.3432V42.3432H13.7273ZM41.4444 13.7273L41.4444 14.3495L41.4444 14.3495L41.4444 13.7273ZM69.1616 42.3432L68.5394 42.3432V42.3432H69.1616ZM64.401 118.207L64.8747 118.61L65.1398 118.299L64.9593 117.932L64.401 118.207ZM63.8487 82.2746L64.4153 82.5318L64.584 82.1601L64.3102 81.8573L63.8487 82.2746ZM13.7278 100.556L14.35 100.556V100.556H13.7278ZM77.6897 60.1427C83.0061 66.0226 90.812 69.7839 99.6563 69.7839V68.5395C91.1731 68.5395 83.6996 64.934 78.6128 59.3081L77.6897 60.1427ZM81.2667 42.3432C81.2667 48.4618 79.9474 54.2634 77.5847 59.4682L78.7179 59.9826C81.1527 54.6189 82.5111 48.6422 82.5111 42.3432H81.2667ZM77.0407 24.0676C79.744 29.5624 81.2667 35.7699 81.2667 42.3432H82.5111C82.5111 35.576 80.9432 29.1809 78.1573 23.5183L77.0407 24.0676ZM99.6563 13.1051C90.4935 13.1051 82.4454 17.1422 77.1253 23.3896L78.0727 24.1964C83.1627 18.2192 90.8678 14.3496 99.6563 14.3496V13.1051ZM128.894 41.4445C128.894 26.0443 116.058 13.1051 99.6563 13.1051L99.6563 14.3496C115.393 14.3496 127.65 26.7537 127.65 41.4445L128.894 41.4445ZM99.6563 69.7839C116.058 69.7839 128.894 56.8447 128.894 41.4445H127.65C127.65 56.1353 115.393 68.5395 99.6563 68.5395L99.6563 69.7839ZM70.5442 12.7318C63.1101 5.10303 52.8178 0.377779 41.4444 0.377778L41.4444 1.62222C52.4645 1.62222 62.4404 6.19894 69.653 13.6003L70.5442 12.7318ZM99.6563 0.377841C87.9045 0.377841 77.2777 5.10584 69.6586 12.7261L70.5386 13.606C77.931 6.21253 88.2438 1.62229 99.6563 1.62229L99.6563 0.377841ZM141.622 41.4445C141.622 18.7512 122.82 0.37784 99.6563 0.377841L99.6563 1.62229C122.159 1.62228 140.377 19.4641 140.377 41.4445L141.622 41.4445ZM129.268 70.5442C136.896 63.1101 141.622 52.8179 141.622 41.4445H140.377C140.377 52.4646 135.801 62.4404 128.399 69.653L129.268 70.5442ZM141.622 99.6568C141.622 87.9047 136.894 77.2778 129.273 69.6586L128.393 70.5386C135.787 77.9311 140.378 88.2441 140.378 99.6568H141.622ZM100.556 141.622C123.249 141.622 141.622 122.821 141.622 99.6568H140.378C140.378 122.159 122.536 140.378 100.556 140.378V141.622ZM71.4558 129.268C78.8899 136.897 89.1821 141.622 100.556 141.622V140.378C89.5355 140.378 79.5596 135.801 72.347 128.4L71.4558 129.268ZM42.3437 141.622C54.0955 141.622 64.7222 136.894 72.3414 129.274L71.4614 128.394C64.069 135.787 53.7562 140.378 42.3437 140.378V141.622ZM0.378277 100.556C0.378276 123.249 19.1798 141.622 42.3437 141.622V140.378C19.8412 140.378 1.62272 122.536 1.62272 100.556L0.378277 100.556ZM12.7323 71.4558C5.10351 78.8899 0.378278 89.1821 0.378277 100.556L1.62272 100.556C1.62272 89.5355 6.19942 79.5596 13.6008 72.347L12.7323 71.4558ZM0.377778 42.3432C0.377777 54.0953 5.106 64.7222 12.7266 72.3414L13.6065 71.4614C6.21268 64.069 1.62222 53.7559 1.62222 42.3432L0.377778 42.3432ZM41.4444 0.377778C18.7511 0.377776 0.37778 19.1793 0.377778 42.3432L1.62222 42.3432C1.62222 19.8407 19.4641 1.62222 41.4444 1.62222L41.4444 0.377778ZM117.932 77.0408C112.437 79.7441 106.23 81.2667 99.6563 81.2667V82.5112C106.423 82.5112 112.819 80.9433 118.481 78.1574L117.932 77.0408ZM128.895 99.6568C128.895 90.4938 124.858 82.4454 118.61 77.1253L117.803 78.0728C123.781 83.1628 127.65 90.8681 127.65 99.6568H128.895ZM100.556 128.895C115.956 128.895 128.895 116.059 128.895 99.6568H127.65C127.65 115.394 115.246 127.651 100.556 127.651V128.895ZM72.2161 99.6568C72.2161 116.059 85.1553 128.895 100.556 128.895V127.651C85.8647 127.651 73.4606 115.394 73.4606 99.6568H72.2161ZM81.8575 77.6901C75.9775 83.0065 72.2161 90.8125 72.2161 99.6568H73.4606C73.4606 91.1736 77.0661 83.7 82.6921 78.6132L81.8575 77.6901ZM99.6563 81.2667C93.5379 81.2667 87.7366 79.9475 82.532 77.5851L82.0176 78.7183C87.3811 81.1528 93.3576 82.5112 99.6563 82.5112V81.2667ZM42.3437 60.7333C48.4621 60.7333 54.2634 62.0525 59.468 64.4149L59.9824 63.2818C54.6188 60.8472 48.6424 59.4888 42.3437 59.4888V60.7333ZM24.0681 64.9593C29.5629 62.2559 35.7704 60.7333 42.3437 60.7333V59.4888C35.5765 59.4888 29.1814 61.0568 23.5188 63.8426L24.0681 64.9593ZM13.1051 42.3432C13.1051 51.5063 17.1424 59.5546 23.3901 64.8747L24.1969 63.9272C18.2194 58.8372 14.3495 51.1319 14.3495 42.3432H13.1051ZM41.4444 13.105C26.0442 13.105 13.1051 25.9414 13.1051 42.3432L14.3495 42.3432C14.3495 26.6064 26.7537 14.3495 41.4444 14.3495L41.4444 13.105ZM69.7838 42.3432C69.7838 25.9414 56.8447 13.105 41.4444 13.105L41.4444 14.3495C56.1352 14.3495 68.5394 26.6064 68.5394 42.3432L69.7838 42.3432ZM60.1425 64.3099C66.0225 58.9935 69.7838 51.1875 69.7838 42.3432H68.5394C68.5394 50.8265 64.9339 58.3001 59.3079 63.3868L60.1425 64.3099ZM63.9272 117.804C58.8373 123.781 51.1322 127.65 42.3437 127.65V128.895C51.5065 128.895 59.5546 124.858 64.8747 118.61L63.9272 117.804ZM59.4889 99.6568C59.4889 106.424 61.0568 112.819 63.8427 118.482L64.9593 117.932C62.256 112.438 60.7333 106.23 60.7333 99.6568H59.4889ZM63.2821 82.0174C60.8473 87.3811 59.4889 93.3578 59.4889 99.6568H60.7333C60.7333 93.5382 62.0526 87.7366 64.4153 82.5318L63.2821 82.0174ZM42.3437 73.4606C50.8269 73.4606 58.3004 77.066 63.3872 82.6919L64.3102 81.8573C58.9939 75.9774 51.1879 72.2161 42.3437 72.2161V73.4606ZM14.35 100.556C14.35 85.8647 26.6069 73.4606 42.3437 73.4606V72.2161C25.9419 72.2161 13.1055 85.1553 13.1055 100.556H14.35ZM42.3437 127.65C26.6069 127.65 14.35 115.246 14.35 100.556L13.1055 100.556C13.1055 115.956 25.9419 128.895 42.3437 128.895V127.65Z" fill="#73D2A7" mask="url(#path-1-outside-1_2690_48)"/>
<path d="M205.24 59L168.6 5.88V3H179.4L216.12 56.12V59H205.24ZM168.6 59V3H179.4V59H168.6ZM205.24 59V3H216.12V59H205.24ZM221.75 59V49.56L255.99 5.8L258.07 13.24H222.55V3H263.91V12.44L229.67 56.2L227.51 48.76H264.31V59H221.75ZM311.534 60.28C306.201 60.28 301.481 59.08 297.374 56.68C293.268 54.2267 290.068 50.8133 287.774 46.44C285.481 42.0133 284.334 36.8667 284.334 31C284.334 25.1333 285.481 20.0133 287.774 15.64C290.068 11.2133 293.268 7.8 297.374 5.4C301.481 2.94667 306.201 1.72 311.534 1.72C316.921 1.72 321.641 2.94667 325.694 5.4C329.801 7.8 333.001 11.2133 335.294 15.64C337.588 20.0133 338.734 25.1333 338.734 31C338.734 36.8667 337.588 42.0133 335.294 46.44C333.001 50.8133 329.801 54.2267 325.694 56.68C321.641 59.08 316.921 60.28 311.534 60.28ZM311.534 50.04C314.734 50.04 317.561 49.2667 320.014 47.72C322.521 46.1733 324.468 43.9867 325.854 41.16C327.241 38.28 327.934 34.8933 327.934 31C327.934 27.0533 327.241 23.6667 325.854 20.84C324.468 18.0133 322.521 15.8267 320.014 14.28C317.561 12.7333 314.734 11.96 311.534 11.96C308.334 11.96 305.481 12.7333 302.974 14.28C300.521 15.8267 298.601 18.0133 297.214 20.84C295.828 23.6667 295.134 27.0533 295.134 31C295.134 34.8933 295.828 38.28 297.214 41.16C298.601 43.9867 300.521 46.1733 302.974 47.72C305.481 49.2667 308.334 50.04 311.534 50.04ZM343.516 59V18.36H353.516V28.04L350.876 28.6C352.156 25.4 354.102 22.8933 356.716 21.08C359.329 19.2667 362.342 18.36 365.756 18.36H369.516V27.88H364.156C362.129 27.88 360.369 28.3067 358.876 29.16C357.436 30.0133 356.316 31.2667 355.516 32.92C354.716 34.52 354.316 36.44 354.316 38.68V59H343.516ZM383.786 75C378.239 75 373.866 73.9333 370.666 71.8C367.466 69.72 365.866 66.8133 365.866 63.08C365.866 60.5733 366.559 58.4133 367.946 56.6C369.332 54.7333 371.332 53.2933 373.946 52.28L379.146 56.36C378.079 56.7867 377.226 57.48 376.586 58.44C375.999 59.3467 375.706 60.3333 375.706 61.4C375.706 62.6267 376.159 63.7733 377.066 64.84C377.972 65.96 379.706 66.52 382.266 66.52H387.946C390.612 66.52 392.559 66.1733 393.786 65.48C395.066 64.7867 395.706 63.8 395.706 62.52C395.706 61.3467 395.226 60.4667 394.266 59.88C393.306 59.2933 392.026 59 390.426 59H380.986C378.532 59 376.346 58.6 374.426 57.8C372.506 56.9467 370.986 55.8 369.866 54.36C368.799 52.92 368.266 51.2933 368.266 49.48C368.266 47.24 368.932 45.32 370.266 43.72C371.652 42.0667 373.572 40.7333 376.026 39.72L381.786 44.12C380.559 44.12 379.572 44.52 378.826 45.32C378.079 46.0667 377.706 46.8133 377.706 47.56C377.706 48.52 378.079 49.2933 378.826 49.88C379.626 50.4133 380.906 50.68 382.666 50.68H391.946C396.052 50.68 399.332 51.72 401.786 53.8C404.292 55.88 405.546 58.6533 405.546 62.12C405.546 66.0133 403.946 69.1333 400.746 71.48C397.546 73.8267 393.226 75 387.786 75H383.786ZM386.026 45.88C382.612 45.88 379.626 45.2667 377.066 44.04C374.506 42.8133 372.506 41.1333 371.066 39C369.626 36.8133 368.906 34.3067 368.906 31.48C368.906 28.6533 369.626 26.1733 371.066 24.04C372.506 21.8533 374.506 20.1467 377.066 18.92C379.626 17.6933 382.612 17.08 386.026 17.08C389.439 17.08 392.426 17.6933 394.986 18.92C397.546 20.1467 399.546 21.8533 400.986 24.04C402.426 26.1733 403.146 28.6533 403.146 31.48C403.146 34.3067 402.426 36.8133 400.986 39C399.546 41.1333 397.546 42.8133 394.986 44.04C392.426 45.2667 389.439 45.88 386.026 45.88ZM386.026 37.56C388.159 37.56 389.866 37 391.146 35.88C392.479 34.76 393.146 33.2933 393.146 31.48C393.146 29.6667 392.479 28.2 391.146 27.08C389.866 25.96 388.159 25.4 386.026 25.4C383.892 25.4 382.159 25.96 380.826 27.08C379.546 28.2 378.906 29.6667 378.906 31.48C378.906 33.2933 379.546 34.76 380.826 35.88C382.159 37 383.892 37.56 386.026 37.56ZM398.266 24.84L391.546 22.04C391.546 19.5867 392.026 17.4 392.986 15.48C393.946 13.5067 395.252 11.96 396.906 10.84C398.559 9.72 400.399 9.16 402.426 9.16C403.172 9.16 403.812 9.18666 404.346 9.24C404.932 9.24 405.332 9.29333 405.546 9.4V18.28L405.146 19.08C404.612 18.92 403.919 18.84 403.066 18.84C401.466 18.84 400.266 19.4 399.466 20.52C398.666 21.64 398.266 23.08 398.266 24.84ZM420.686 60.28C417.912 60.28 415.432 59.7467 413.246 58.68C411.112 57.6133 409.432 56.12 408.206 54.2C406.979 52.28 406.366 50.0933 406.366 47.64C406.366 43.6933 407.699 40.5733 410.366 38.28C413.086 35.9333 417.032 34.5467 422.206 34.12L437.966 32.76V41.4L423.566 42.6C421.272 42.8133 419.646 43.2933 418.686 44.04C417.779 44.7867 417.326 45.7467 417.326 46.92C417.326 48.0933 417.886 49.0533 419.006 49.8C420.126 50.4933 421.539 50.84 423.246 50.84C425.112 50.84 426.792 50.36 428.286 49.4C429.832 48.44 431.059 47.2133 431.966 45.72C432.872 44.1733 433.326 42.5467 433.326 40.84V34.2C433.326 31.9067 432.526 30.0133 430.926 28.52C429.326 27.0267 427.299 26.28 424.846 26.28C422.552 26.28 420.712 26.8667 419.326 28.04C417.939 29.16 417.112 30.4133 416.846 31.8H415.966L406.846 29.88C407.646 26.2533 409.619 23.2133 412.766 20.76C415.966 18.3067 419.992 17.08 424.846 17.08C430.712 17.08 435.326 18.7333 438.686 22.04C442.099 25.3467 443.806 30.0133 443.806 36.04V59H434.446V47.16H438.366C437.726 49.5067 436.552 51.6933 434.846 53.72C433.192 55.6933 431.166 57.2933 428.766 58.52C426.366 59.6933 423.672 60.28 420.686 60.28ZM449.775 59V18.36H459.775V28.04L457.135 28.6C458.095 26.2 459.375 24.1467 460.975 22.44C462.575 20.7333 464.442 19.4267 466.575 18.52C468.708 17.56 471.028 17.08 473.535 17.08C476.415 17.08 479.028 17.72 481.375 19C483.775 20.2267 485.668 22.0667 487.055 24.52C488.495 26.9733 489.215 30.04 489.215 33.72V59H478.415V37.16C478.415 34.8667 478.095 32.9467 477.455 31.4C476.868 29.8533 475.988 28.68 474.815 27.88C473.642 27.08 472.228 26.68 470.575 26.68C469.295 26.68 467.882 27.0267 466.335 27.72C464.788 28.4133 463.428 29.6667 462.255 31.48C461.135 33.24 460.575 35.8267 460.575 39.24V59H449.775ZM495.247 59V18.36H506.047V59H495.247ZM500.687 13.24C498.874 13.24 497.327 12.6 496.047 11.32C494.767 10.04 494.127 8.49333 494.127 6.68C494.127 4.92 494.767 3.4 496.047 2.12C497.327 0.839999 498.874 0.199999 500.687 0.199999C502.447 0.199999 503.967 0.839999 505.247 2.12C506.527 3.4 507.167 4.92 507.167 6.68C507.167 8.49333 506.527 10.04 505.247 11.32C503.967 12.6 502.447 13.24 500.687 13.24ZM531.958 60.28C527.691 60.28 523.931 59.3733 520.678 57.56C517.478 55.7467 514.971 53.2133 513.158 49.96C511.344 46.7067 510.438 42.9467 510.438 38.68C510.438 34.4133 511.344 30.6533 513.158 27.4C514.971 24.1467 517.478 21.6133 520.678 19.8C523.931 17.9867 527.691 17.08 531.958 17.08C535.264 17.08 538.198 17.6133 540.758 18.68C543.371 19.6933 545.558 21.2667 547.318 23.4C549.131 25.5333 550.518 28.2 551.478 31.4L542.598 33.88H541.638C540.944 31.64 539.664 29.88 537.798 28.6C535.984 27.2667 534.038 26.6 531.958 26.6C529.771 26.6 527.878 27.1067 526.278 28.12C524.678 29.08 523.424 30.4667 522.518 32.28C521.664 34.04 521.238 36.1733 521.238 38.68C521.238 41.1333 521.664 43.2667 522.518 45.08C523.424 46.8933 524.678 48.3067 526.278 49.32C527.878 50.28 529.771 50.76 531.958 50.76C533.504 50.76 534.944 50.4667 536.278 49.88C537.664 49.2933 538.864 48.4667 539.878 47.4C540.891 46.28 541.611 44.9733 542.038 43.48H542.998L551.878 45.96C550.918 49.16 549.531 51.8267 547.718 53.96C545.904 56.0933 543.691 57.6933 541.078 58.76C538.464 59.7733 535.424 60.28 531.958 60.28ZM571.158 60.28C566.625 60.28 562.731 59.24 559.478 57.16C556.278 55.0267 554.145 52.1467 553.078 48.52L562.918 46.04L563.878 46.28C564.305 47.7733 565.211 48.9467 566.598 49.8C568.038 50.6533 569.691 51.08 571.558 51.08C573.371 51.08 574.891 50.7333 576.118 50.04C577.345 49.2933 577.958 48.3333 577.958 47.16C577.958 46.1467 577.585 45.3467 576.838 44.76C576.091 44.1733 574.971 43.72 573.478 43.4L565.798 41.72C562.011 40.8667 559.078 39.4267 556.998 37.4C554.971 35.32 553.958 32.7867 553.958 29.8C553.958 27.24 554.678 25.0267 556.118 23.16C557.558 21.24 559.531 19.7467 562.038 18.68C564.598 17.6133 567.478 17.08 570.678 17.08C574.998 17.08 578.651 18.1467 581.638 20.28C584.678 22.36 586.678 25.2667 587.638 29L578.518 31L577.638 30.84C577.265 29.5067 576.358 28.4133 574.918 27.56C573.531 26.7067 571.958 26.28 570.198 26.28C568.598 26.28 567.238 26.5733 566.118 27.16C565.051 27.7467 564.518 28.5733 564.518 29.64C564.518 30.3333 564.811 31 565.398 31.64C566.038 32.2267 566.998 32.6533 568.278 32.92L575.958 34.68C580.065 35.64 583.185 37.0533 585.318 38.92C587.451 40.7333 588.518 43.2667 588.518 46.52C588.518 49.2933 587.771 51.72 586.278 53.8C584.785 55.88 582.731 57.48 580.118 58.6C577.505 59.72 574.518 60.28 571.158 60.28ZM192.36 130.28C187.24 130.28 182.707 129.08 178.76 126.68C174.813 124.227 171.72 120.813 169.48 116.44C167.293 112.013 166.2 106.867 166.2 101C166.2 95.1333 167.32 90.0133 169.56 85.64C171.853 81.2133 175 77.8 179 75.4C183.053 72.9467 187.72 71.72 193 71.72C198.44 71.72 203.213 73.1067 207.32 75.88C211.427 78.6533 214.467 82.4667 216.44 87.32L206.92 90.12L206.04 89.96C204.707 87.4 202.893 85.4267 200.6 84.04C198.36 82.6533 195.827 81.96 193 81.96C189.907 81.96 187.133 82.7333 184.68 84.28C182.28 85.8267 180.387 88.0133 179 90.84C177.667 93.6667 177 97.0533 177 101C177 104.893 177.72 108.28 179.16 111.16C180.6 113.987 182.573 116.173 185.08 117.72C187.587 119.267 190.467 120.04 193.72 120.04C195.8 120.04 197.933 119.56 200.12 118.6C202.307 117.587 204.12 116.067 205.56 114.04C207.053 112.013 207.8 109.48 207.8 106.44V105.8L210.76 107.24H193.72V97H217.08L218.2 98.12V129H208.36V117.8H211.96C210.52 120.733 208.733 123.133 206.6 125C204.52 126.813 202.253 128.147 199.8 129C197.347 129.853 194.867 130.28 192.36 130.28ZM224.6 129V88.36H234.6V98.04L231.96 98.6C233.24 95.4 235.187 92.8933 237.8 91.08C240.413 89.2667 243.427 88.36 246.84 88.36H250.6V97.88H245.24C243.213 97.88 241.453 98.3067 239.96 99.16C238.52 100.013 237.4 101.267 236.6 102.92C235.8 104.52 235.4 106.44 235.4 108.68V129H224.6ZM270.209 130.28C266.049 130.28 262.369 129.373 259.169 127.56C256.023 125.693 253.543 123.133 251.729 119.88C249.916 116.627 249.009 112.893 249.009 108.68C249.009 104.467 249.916 100.733 251.729 97.48C253.543 94.2267 256.023 91.6933 259.169 89.88C262.369 88.0133 266.049 87.08 270.209 87.08C274.369 87.08 278.023 88.0133 281.169 89.88C284.369 91.6933 286.876 94.2267 288.689 97.48C290.503 100.733 291.409 104.467 291.409 108.68C291.409 112.893 290.503 116.627 288.689 119.88C286.876 123.133 284.369 125.693 281.169 127.56C278.023 129.373 274.369 130.28 270.209 130.28ZM270.209 120.76C272.343 120.76 274.183 120.28 275.729 119.32C277.276 118.307 278.476 116.893 279.329 115.08C280.183 113.267 280.609 111.133 280.609 108.68C280.609 106.227 280.183 104.093 279.329 102.28C278.476 100.467 277.276 99.08 275.729 98.12C274.183 97.1067 272.343 96.6 270.209 96.6C268.076 96.6 266.236 97.1067 264.689 98.12C263.143 99.08 261.943 100.467 261.089 102.28C260.236 104.093 259.809 106.227 259.809 108.68C259.809 111.133 260.236 113.267 261.089 115.08C261.943 116.893 263.143 118.307 264.689 119.32C266.236 120.28 268.076 120.76 270.209 120.76ZM334.818 88.36V129H324.818V119.32L327.458 118.76C326.551 121.16 325.271 123.213 323.618 124.92C322.018 126.627 320.151 127.96 318.018 128.92C315.938 129.827 313.618 130.28 311.058 130.28C308.231 130.28 305.618 129.667 303.218 128.44C300.818 127.16 298.898 125.293 297.458 122.84C296.071 120.333 295.378 117.267 295.378 113.64V88.36H306.178V110.2C306.178 112.44 306.471 114.36 307.058 115.96C307.698 117.507 308.605 118.68 309.778 119.48C310.951 120.28 312.365 120.68 314.018 120.68C315.298 120.68 316.711 120.333 318.258 119.64C319.858 118.947 321.218 117.693 322.338 115.88C323.458 114.067 324.018 111.48 324.018 108.12V88.36H334.818ZM364.45 130.28C361.357 130.28 358.61 129.64 356.21 128.36C353.81 127.08 351.837 125.453 350.29 123.48C348.797 121.507 347.757 119.48 347.17 117.4V99.8C347.757 97.72 348.797 95.72 350.29 93.8C351.837 91.8267 353.81 90.2267 356.21 89C358.61 87.72 361.357 87.08 364.45 87.08C368.183 87.08 371.517 88.0133 374.45 89.88C377.437 91.6933 379.783 94.2267 381.49 97.48C383.25 100.68 384.13 104.387 384.13 108.6C384.13 112.813 383.25 116.573 381.49 119.88C379.783 123.133 377.437 125.693 374.45 127.56C371.517 129.373 368.183 130.28 364.45 130.28ZM341.25 145V88.36H351.25V99.64L348.85 108.68L352.05 117.72V145H341.25ZM362.53 120.68C364.717 120.68 366.61 120.173 368.21 119.16C369.81 118.147 371.063 116.733 371.97 114.92C372.877 113.107 373.33 111.027 373.33 108.68C373.33 106.28 372.877 104.2 371.97 102.44C371.063 100.627 369.81 99.2133 368.21 98.2C366.61 97.1867 364.717 96.68 362.53 96.68C360.397 96.68 358.503 97.1867 356.85 98.2C355.25 99.2133 353.997 100.627 353.09 102.44C352.183 104.2 351.73 106.28 351.73 108.68C351.73 111.027 352.183 113.107 353.09 114.92C353.997 116.733 355.25 118.147 356.85 119.16C358.503 120.173 360.397 120.68 362.53 120.68Z" fill="url(#paint1_linear_2690_48)"/>
<defs>
<linearGradient id="paint0_linear_2690_48" x1="45.4923" y1="141" x2="96.5077" y2="0.999999" gradientUnits="userSpaceOnUse">
<stop stop-color="#1E4E4C"/>
<stop offset="1" stop-color="#45B47F"/>
</linearGradient>
<linearGradient id="paint1_linear_2690_48" x1="163" y1="99.2456" x2="588.836" y2="68.852" gradientUnits="userSpaceOnUse">
<stop stop-color="#235D53"/>
<stop offset="1" stop-color="#42AD7B"/>
</linearGradient>
</defs>
</svg>
