<svg width="591" height="150" viewBox="0 0 591 150" fill="none" xmlns="http://www.w3.org/2000/svg">
<mask id="path-1-outside-1_2690_48" maskUnits="userSpaceOnUse" x="0" y="0" width="142" height="142" fill="black">
<rect fill="white" width="142" height="142"/>
<path fill-rule="evenodd" clip-rule="evenodd" d="M99.6563 69.1617C90.9926 69.1617 83.3528 65.4783 78.1513 59.7254C80.55 54.4411 81.8889 48.552 81.8889 42.3432C81.8889 35.673 80.3436 29.3717 77.599 23.793C82.8041 17.6807 90.6807 13.7273 99.6563 13.7273C115.726 13.7273 128.272 26.399 128.272 41.4445C128.272 56.49 115.726 69.1617 99.6563 69.1617ZM41.4444 1C52.6412 1 62.7752 5.65098 70.0986 13.1661C77.6044 5.65919 88.0741 1.00006 99.6563 1.00006C122.489 1.00006 140.999 19.1077 140.999 41.4445C140.999 52.6412 136.349 62.7753 128.833 70.0986C136.341 77.6044 141 88.0744 141 99.6568C141 122.49 122.892 141 100.556 141C89.3588 141 79.2248 136.349 71.9014 128.834C64.3956 136.341 53.9258 141 42.3437 141C19.5105 141 1.0005 122.892 1.0005 100.556C1.0005 89.3588 5.65146 79.2248 13.1665 71.9014C5.65934 64.3956 0.999999 53.9256 1 42.3432C1 19.51 19.1076 0.999998 41.4444 1ZM99.6563 81.889C106.327 81.889 112.628 80.3437 118.207 77.5991C124.319 82.8041 128.273 90.6809 128.273 99.6568C128.273 115.726 115.601 128.273 100.556 128.273C85.51 128.273 72.8384 115.726 72.8384 99.6568C72.8384 90.993 76.5218 83.3532 82.2748 78.1517C87.5589 80.5502 93.4478 81.889 99.6563 81.889ZM59.7252 63.8483C54.4411 61.4498 48.5522 60.1111 42.3437 60.1111C35.6735 60.1111 29.3722 61.6564 23.7935 64.4009C17.6809 59.1959 13.7273 51.3191 13.7273 42.3432C13.7273 26.2739 26.3989 13.7273 41.4444 13.7273C56.49 13.7273 69.1616 26.2739 69.1616 42.3432C69.1616 51.007 65.4782 58.6468 59.7252 63.8483ZM42.3437 128.273C51.3193 128.273 59.1959 124.319 64.401 118.207C61.6564 112.628 60.1111 106.327 60.1111 99.6568C60.1111 93.448 61.45 87.5589 63.8487 82.2746C58.6471 76.5217 51.0074 72.8383 42.3437 72.8383C26.2744 72.8383 13.7278 85.51 13.7278 100.556C13.7278 115.601 26.2744 128.273 42.3437 128.273Z"/>
</mask>
<path fill-rule="evenodd" clip-rule="evenodd" d="M99.6563 69.1617C90.9926 69.1617 83.3528 65.4783 78.1513 59.7254C80.55 54.4411 81.8889 48.552 81.8889 42.3432C81.8889 35.673 80.3436 29.3717 77.599 23.793C82.8041 17.6807 90.6807 13.7273 99.6563 13.7273C115.726 13.7273 128.272 26.399 128.272 41.4445C128.272 56.49 115.726 69.1617 99.6563 69.1617ZM41.4444 1C52.6412 1 62.7752 5.65098 70.0986 13.1661C77.6044 5.65919 88.0741 1.00006 99.6563 1.00006C122.489 1.00006 140.999 19.1077 140.999 41.4445C140.999 52.6412 136.349 62.7753 128.833 70.0986C136.341 77.6044 141 88.0744 141 99.6568C141 122.49 122.892 141 100.556 141C89.3588 141 79.2248 136.349 71.9014 128.834C64.3956 136.341 53.9258 141 42.3437 141C19.5105 141 1.0005 122.892 1.0005 100.556C1.0005 89.3588 5.65146 79.2248 13.1665 71.9014C5.65934 64.3956 0.999999 53.9256 1 42.3432C1 19.51 19.1076 0.999998 41.4444 1ZM99.6563 81.889C106.327 81.889 112.628 80.3437 118.207 77.5991C124.319 82.8041 128.273 90.6809 128.273 99.6568C128.273 115.726 115.601 128.273 100.556 128.273C85.51 128.273 72.8384 115.726 72.8384 99.6568C72.8384 90.993 76.5218 83.3532 82.2748 78.1517C87.5589 80.5502 93.4478 81.889 99.6563 81.889ZM59.7252 63.8483C54.4411 61.4498 48.5522 60.1111 42.3437 60.1111C35.6735 60.1111 29.3722 61.6564 23.7935 64.4009C17.6809 59.1959 13.7273 51.3191 13.7273 42.3432C13.7273 26.2739 26.3989 13.7273 41.4444 13.7273C56.49 13.7273 69.1616 26.2739 69.1616 42.3432C69.1616 51.007 65.4782 58.6468 59.7252 63.8483ZM42.3437 128.273C51.3193 128.273 59.1959 124.319 64.401 118.207C61.6564 112.628 60.1111 106.327 60.1111 99.6568C60.1111 93.448 61.45 87.5589 63.8487 82.2746C58.6471 76.5217 51.0074 72.8383 42.3437 72.8383C26.2744 72.8383 13.7278 85.51 13.7278 100.556C13.7278 115.601 26.2744 128.273 42.3437 128.273Z" fill="url(#paint0_linear_2690_48)"/>
<path d="M78.1513 59.7254L77.5847 59.4682L77.416 59.8399L77.6897 60.1427L78.1513 59.7254ZM99.6563 69.1617L99.6563 69.7839L99.6563 69.7839L99.6563 69.1617ZM77.599 23.793L77.1253 23.3896L76.8602 23.7008L77.0407 24.0676L77.599 23.793ZM99.6563 13.7273L99.6563 14.3496L99.6563 14.3496L99.6563 13.7273ZM128.272 41.4445L128.894 41.4445L128.894 41.4445L128.272 41.4445ZM70.0986 13.1661L69.653 13.6003L70.0929 14.0518L70.5386 13.606L70.0986 13.1661ZM41.4444 1L41.4444 1.62222L41.4444 1ZM99.6563 1.00006L99.6563 1.62229L99.6563 1.00006ZM140.999 41.4445L141.622 41.4445L141.622 41.4445L140.999 41.4445ZM128.833 70.0986L128.399 69.653L127.948 70.0929L128.393 70.5386L128.833 70.0986ZM71.9014 128.834L72.347 128.4L71.9071 127.948L71.4614 128.394L71.9014 128.834ZM1.0005 100.556L1.62272 100.556L1.0005 100.556ZM13.1665 71.9014L13.6008 72.347L14.0523 71.9071L13.6065 71.4614L13.1665 71.9014ZM1 42.3432L0.377778 42.3432L1 42.3432ZM118.207 77.5991L118.61 77.1253L118.299 76.8603L117.932 77.0408L118.207 77.5991ZM82.2748 78.1517L82.532 77.5851L82.1603 77.4164L81.8575 77.6901L82.2748 78.1517ZM59.7252 63.8483L59.468 64.4149L59.8397 64.5836L60.1425 64.3099L59.7252 63.8483ZM23.7935 64.4009L23.3901 64.8747L23.7013 65.1397L24.0681 64.9593L23.7935 64.4009ZM13.7273 42.3432L13.1051 42.3432V42.3432H13.7273ZM41.4444 13.7273L41.4444 14.3495L41.4444 14.3495L41.4444 13.7273ZM69.1616 42.3432L68.5394 42.3432V42.3432H69.1616ZM64.401 118.207L64.8747 118.61L65.1398 118.299L64.9593 117.932L64.401 118.207ZM63.8487 82.2746L64.4153 82.5318L64.584 82.1601L64.3102 81.8573L63.8487 82.2746ZM13.7278 100.556L14.35 100.556V100.556H13.7278ZM77.6897 60.1427C83.0061 66.0226 90.812 69.7839 99.6563 69.7839V68.5395C91.1731 68.5395 83.6996 64.934 78.6128 59.3081L77.6897 60.1427ZM81.2667 42.3432C81.2667 48.4618 79.9474 54.2634 77.5847 59.4682L78.7179 59.9826C81.1527 54.6189 82.5111 48.6422 82.5111 42.3432H81.2667ZM77.0407 24.0676C79.744 29.5624 81.2667 35.7699 81.2667 42.3432H82.5111C82.5111 35.576 80.9432 29.1809 78.1573 23.5183L77.0407 24.0676ZM99.6563 13.1051C90.4935 13.1051 82.4454 17.1422 77.1253 23.3896L78.0727 24.1964C83.1627 18.2192 90.8678 14.3496 99.6563 14.3496V13.1051ZM128.894 41.4445C128.894 26.0443 116.058 13.1051 99.6563 13.1051L99.6563 14.3496C115.393 14.3496 127.65 26.7537 127.65 41.4445L128.894 41.4445ZM99.6563 69.7839C116.058 69.7839 128.894 56.8447 128.894 41.4445H127.65C127.65 56.1353 115.393 68.5395 99.6563 68.5395L99.6563 69.7839ZM70.5442 12.7318C63.1101 5.10303 52.8178 0.377779 41.4444 0.377778L41.4444 1.62222C52.4645 1.62222 62.4404 6.19894 69.653 13.6003L70.5442 12.7318ZM99.6563 0.377841C87.9045 0.377841 77.2777 5.10584 69.6586 12.7261L70.5386 13.606C77.931 6.21253 88.2438 1.62229 99.6563 1.62229L99.6563 0.377841ZM141.622 41.4445C141.622 18.7512 122.82 0.37784 99.6563 0.377841L99.6563 1.62229C122.159 1.62228 140.377 19.4641 140.377 41.4445L141.622 41.4445ZM129.268 70.5442C136.896 63.1101 141.622 52.8179 141.622 41.4445H140.377C140.377 52.4646 135.801 62.4404 128.399 69.653L129.268 70.5442ZM141.622 99.6568C141.622 87.9047 136.894 77.2778 129.273 69.6586L128.393 70.5386C135.787 77.9311 140.378 88.2441 140.378 99.6568H141.622ZM100.556 141.622C123.249 141.622 141.622 122.821 141.622 99.6568H140.378C140.378 122.159 122.536 140.378 100.556 140.378V141.622ZM71.4558 129.268C78.8899 136.897 89.1821 141.622 100.556 141.622V140.378C89.5355 140.378 79.5596 135.801 72.347 128.4L71.4558 129.268ZM42.3437 141.622C54.0955 141.622 64.7222 136.894 72.3414 129.274L71.4614 128.394C64.069 135.787 53.7562 140.378 42.3437 140.378V141.622ZM0.378277 100.556C0.378276 123.249 19.1798 141.622 42.3437 141.622V140.378C19.8412 140.378 1.62272 122.536 1.62272 100.556L0.378277 100.556ZM12.7323 71.4558C5.10351 78.8899 0.378278 89.1821 0.378277 100.556L1.62272 100.556C1.62272 89.5355 6.19942 79.5596 13.6008 72.347L12.7323 71.4558ZM0.377778 42.3432C0.377777 54.0953 5.106 64.7222 12.7266 72.3414L13.6065 71.4614C6.21268 64.069 1.62222 53.7559 1.62222 42.3432L0.377778 42.3432ZM41.4444 0.377778C18.7511 0.377776 0.37778 19.1793 0.377778 42.3432L1.62222 42.3432C1.62222 19.8407 19.4641 1.62222 41.4444 1.62222L41.4444 0.377778ZM117.932 77.0408C112.437 79.7441 106.23 81.2667 99.6563 81.2667V82.5112C106.423 82.5112 112.819 80.9433 118.481 78.1574L117.932 77.0408ZM128.895 99.6568C128.895 90.4938 124.858 82.4454 118.61 77.1253L117.803 78.0728C123.781 83.1628 127.65 90.8681 127.65 99.6568H128.895ZM100.556 128.895C115.956 128.895 128.895 116.059 128.895 99.6568H127.65C127.65 115.394 115.246 127.651 100.556 127.651V128.895ZM72.2161 99.6568C72.2161 116.059 85.1553 128.895 100.556 128.895V127.651C85.8647 127.651 73.4606 115.394 73.4606 99.6568H72.2161ZM81.8575 77.6901C75.9775 83.0065 72.2161 90.8125 72.2161 99.6568H73.4606C73.4606 91.1736 77.0661 83.7 82.6921 78.6132L81.8575 77.6901ZM99.6563 81.2667C93.5379 81.2667 87.7366 79.9475 82.532 77.5851L82.0176 78.7183C87.3811 81.1528 93.3576 82.5112 99.6563 82.5112V81.2667ZM42.3437 60.7333C48.4621 60.7333 54.2634 62.0525 59.468 64.4149L59.9824 63.2818C54.6188 60.8472 48.6424 59.4888 42.3437 59.4888V60.7333ZM24.0681 64.9593C29.5629 62.2559 35.7704 60.7333 42.3437 60.7333V59.4888C35.5765 59.4888 29.1814 61.0568 23.5188 63.8426L24.0681 64.9593ZM13.1051 42.3432C13.1051 51.5063 17.1424 59.5546 23.3901 64.8747L24.1969 63.9272C18.2194 58.8372 14.3495 51.1319 14.3495 42.3432H13.1051ZM41.4444 13.105C26.0442 13.105 13.1051 25.9414 13.1051 42.3432L14.3495 42.3432C14.3495 26.6064 26.7537 14.3495 41.4444 14.3495L41.4444 13.105ZM69.7838 42.3432C69.7838 25.9414 56.8447 13.105 41.4444 13.105L41.4444 14.3495C56.1352 14.3495 68.5394 26.6064 68.5394 42.3432L69.7838 42.3432ZM60.1425 64.3099C66.0225 58.9935 69.7838 51.1875 69.7838 42.3432H68.5394C68.5394 50.8265 64.9339 58.3001 59.3079 63.3868L60.1425 64.3099ZM63.9272 117.804C58.8373 123.781 51.1322 127.65 42.3437 127.65V128.895C51.5065 128.895 59.5546 124.858 64.8747 118.61L63.9272 117.804ZM59.4889 99.6568C59.4889 106.424 61.0568 112.819 63.8427 118.482L64.9593 117.932C62.256 112.438 60.7333 106.23 60.7333 99.6568H59.4889ZM63.2821 82.0174C60.8473 87.3811 59.4889 93.3578 59.4889 99.6568H60.7333C60.7333 93.5382 62.0526 87.7366 64.4153 82.5318L63.2821 82.0174ZM42.3437 73.4606C50.8269 73.4606 58.3004 77.066 63.3872 82.6919L64.3102 81.8573C58.9939 75.9774 51.1879 72.2161 42.3437 72.2161V73.4606ZM14.35 100.556C14.35 85.8647 26.6069 73.4606 42.3437 73.4606V72.2161C25.9419 72.2161 13.1055 85.1553 13.1055 100.556H14.35ZM42.3437 127.65C26.6069 127.65 14.35 115.246 14.35 100.556L13.1055 100.556C13.1055 115.956 25.9419 128.895 42.3437 128.895V127.65Z" fill="#73D2A7" mask="url(#path-1-outside-1_2690_48)"/>
<path d="M205.24 64L168.6 10.88V8H179.4L216.12 61.12V64H205.24ZM168.6 64V8H179.4V64H168.6ZM205.24 64V8H216.12V64H205.24ZM221.75 64V54.56L255.99 10.8L258.07 18.24H222.55V8H263.91V17.44L229.67 61.2L227.51 53.76H264.31V64H221.75ZM311.534 65.28C306.201 65.28 301.481 64.08 297.374 61.68C293.268 59.2267 290.068 55.8133 287.774 51.44C285.481 47.0133 284.334 41.8667 284.334 36C284.334 30.1333 285.481 25.0133 287.774 20.64C290.068 16.2133 293.268 12.8 297.374 10.4C301.481 7.94667 306.201 6.72 311.534 6.72C316.921 6.72 321.641 7.94667 325.694 10.4C329.801 12.8 333.001 16.2133 335.294 20.64C337.588 25.0133 338.734 30.1333 338.734 36C338.734 41.8667 337.588 47.0133 335.294 51.44C333.001 55.8133 329.801 59.2267 325.694 61.68C321.641 64.08 316.921 65.28 311.534 65.28ZM311.534 55.04C314.734 55.04 317.561 54.2667 320.014 52.72C322.521 51.1733 324.468 48.9867 325.854 46.16C327.241 43.28 327.934 39.8933 327.934 36C327.934 32.0533 327.241 28.6667 325.854 25.84C324.468 23.0133 322.521 20.8267 320.014 19.28C317.561 17.7333 314.734 16.96 311.534 16.96C308.334 16.96 305.481 17.7333 302.974 19.28C300.521 20.8267 298.601 23.0133 297.214 25.84C295.828 28.6667 295.134 32.0533 295.134 36C295.134 39.8933 295.828 43.28 297.214 46.16C298.601 48.9867 300.521 51.1733 302.974 52.72C305.481 54.2667 308.334 55.04 311.534 55.04ZM343.516 64V23.36H353.516V33.04L350.876 33.6C352.156 30.4 354.102 27.8933 356.716 26.08C359.329 24.2667 362.342 23.36 365.756 23.36H369.516V32.88H364.156C362.129 32.88 360.369 33.3067 358.876 34.16C357.436 35.0133 356.316 36.2667 355.516 37.92C354.716 39.52 354.316 41.44 354.316 43.68V64H343.516ZM383.786 80C378.239 80 373.866 78.9333 370.666 76.8C367.466 74.72 365.866 71.8133 365.866 68.08C365.866 65.5733 366.559 63.4133 367.946 61.6C369.332 59.7333 371.332 58.2933 373.946 57.28L379.146 61.36C378.079 61.7867 377.226 62.48 376.586 63.44C375.999 64.3467 375.706 65.3333 375.706 66.4C375.706 67.6267 376.159 68.7733 377.066 69.84C377.972 70.96 379.706 71.52 382.266 71.52H387.946C390.612 71.52 392.559 71.1733 393.786 70.48C395.066 69.7867 395.706 68.8 395.706 67.52C395.706 66.3467 395.226 65.4667 394.266 64.88C393.306 64.2933 392.026 64 390.426 64H380.986C378.532 64 376.346 63.6 374.426 62.8C372.506 61.9467 370.986 60.8 369.866 59.36C368.799 57.92 368.266 56.2933 368.266 54.48C368.266 52.24 368.932 50.32 370.266 48.72C371.652 47.0667 373.572 45.7333 376.026 44.72L381.786 49.12C380.559 49.12 379.572 49.52 378.826 50.32C378.079 51.0667 377.706 51.8133 377.706 52.56C377.706 53.52 378.079 54.2933 378.826 54.88C379.626 55.4133 380.906 55.68 382.666 55.68H391.946C396.052 55.68 399.332 56.72 401.786 58.8C404.292 60.88 405.546 63.6533 405.546 67.12C405.546 71.0133 403.946 74.1333 400.746 76.48C397.546 78.8267 393.226 80 387.786 80H383.786ZM386.026 50.88C382.612 50.88 379.626 50.2667 377.066 49.04C374.506 47.8133 372.506 46.1333 371.066 44C369.626 41.8133 368.906 39.3067 368.906 36.48C368.906 33.6533 369.626 31.1733 371.066 29.04C372.506 26.8533 374.506 25.1467 377.066 23.92C379.626 22.6933 382.612 22.08 386.026 22.08C389.439 22.08 392.426 22.6933 394.986 23.92C397.546 25.1467 399.546 26.8533 400.986 29.04C402.426 31.1733 403.146 33.6533 403.146 36.48C403.146 39.3067 402.426 41.8133 400.986 44C399.546 46.1333 397.546 47.8133 394.986 49.04C392.426 50.2667 389.439 50.88 386.026 50.88ZM386.026 42.56C388.159 42.56 389.866 42 391.146 40.88C392.479 39.76 393.146 38.2933 393.146 36.48C393.146 34.6667 392.479 33.2 391.146 32.08C389.866 30.96 388.159 30.4 386.026 30.4C383.892 30.4 382.159 30.96 380.826 32.08C379.546 33.2 378.906 34.6667 378.906 36.48C378.906 38.2933 379.546 39.76 380.826 40.88C382.159 42 383.892 42.56 386.026 42.56ZM398.266 29.84L391.546 27.04C391.546 24.5867 392.026 22.4 392.986 20.48C393.946 18.5067 395.252 16.96 396.906 15.84C398.559 14.72 400.399 14.16 402.426 14.16C403.172 14.16 403.812 14.1867 404.346 14.24C404.932 14.24 405.332 14.2933 405.546 14.4V23.28L405.146 24.08C404.612 23.92 403.919 23.84 403.066 23.84C401.466 23.84 400.266 24.4 399.466 25.52C398.666 26.64 398.266 28.08 398.266 29.84ZM420.686 65.28C417.912 65.28 415.432 64.7467 413.246 63.68C411.112 62.6133 409.432 61.12 408.206 59.2C406.979 57.28 406.366 55.0933 406.366 52.64C406.366 48.6933 407.699 45.5733 410.366 43.28C413.086 40.9333 417.032 39.5467 422.206 39.12L437.966 37.76V46.4L423.566 47.6C421.272 47.8133 419.646 48.2933 418.686 49.04C417.779 49.7867 417.326 50.7467 417.326 51.92C417.326 53.0933 417.886 54.0533 419.006 54.8C420.126 55.4933 421.539 55.84 423.246 55.84C425.112 55.84 426.792 55.36 428.286 54.4C429.832 53.44 431.059 52.2133 431.966 50.72C432.872 49.1733 433.326 47.5467 433.326 45.84V39.2C433.326 36.9067 432.526 35.0133 430.926 33.52C429.326 32.0267 427.299 31.28 424.846 31.28C422.552 31.28 420.712 31.8667 419.326 33.04C417.939 34.16 417.112 35.4133 416.846 36.8H415.966L406.846 34.88C407.646 31.2533 409.619 28.2133 412.766 25.76C415.966 23.3067 419.992 22.08 424.846 22.08C430.712 22.08 435.326 23.7333 438.686 27.04C442.099 30.3467 443.806 35.0133 443.806 41.04V64H434.446V52.16H438.366C437.726 54.5067 436.552 56.6933 434.846 58.72C433.192 60.6933 431.166 62.2933 428.766 63.52C426.366 64.6933 423.672 65.28 420.686 65.28ZM449.775 64V23.36H459.775V33.04L457.135 33.6C458.095 31.2 459.375 29.1467 460.975 27.44C462.575 25.7333 464.442 24.4267 466.575 23.52C468.708 22.56 471.028 22.08 473.535 22.08C476.415 22.08 479.028 22.72 481.375 24C483.775 25.2267 485.668 27.0667 487.055 29.52C488.495 31.9733 489.215 35.04 489.215 38.72V64H478.415V42.16C478.415 39.8667 478.095 37.9467 477.455 36.4C476.868 34.8533 475.988 33.68 474.815 32.88C473.642 32.08 472.228 31.68 470.575 31.68C469.295 31.68 467.882 32.0267 466.335 32.72C464.788 33.4133 463.428 34.6667 462.255 36.48C461.135 38.24 460.575 40.8267 460.575 44.24V64H449.775ZM495.247 64V23.36H506.047V64H495.247ZM500.687 18.24C498.874 18.24 497.327 17.6 496.047 16.32C494.767 15.04 494.127 13.4933 494.127 11.68C494.127 9.92 494.767 8.4 496.047 7.12C497.327 5.84 498.874 5.2 500.687 5.2C502.447 5.2 503.967 5.84 505.247 7.12C506.527 8.4 507.167 9.92 507.167 11.68C507.167 13.4933 506.527 15.04 505.247 16.32C503.967 17.6 502.447 18.24 500.687 18.24ZM531.958 65.28C527.691 65.28 523.931 64.3733 520.678 62.56C517.478 60.7467 514.971 58.2133 513.158 54.96C511.344 51.7067 510.438 47.9467 510.438 43.68C510.438 39.4133 511.344 35.6533 513.158 32.4C514.971 29.1467 517.478 26.6133 520.678 24.8C523.931 22.9867 527.691 22.08 531.958 22.08C535.264 22.08 538.198 22.6133 540.758 23.68C543.371 24.6933 545.558 26.2667 547.318 28.4C549.131 30.5333 550.518 33.2 551.478 36.4L542.598 38.88H541.638C540.944 36.64 539.664 34.88 537.798 33.6C535.984 32.2667 534.038 31.6 531.958 31.6C529.771 31.6 527.878 32.1067 526.278 33.12C524.678 34.08 523.424 35.4667 522.518 37.28C521.664 39.04 521.238 41.1733 521.238 43.68C521.238 46.1333 521.664 48.2667 522.518 50.08C523.424 51.8933 524.678 53.3067 526.278 54.32C527.878 55.28 529.771 55.76 531.958 55.76C533.504 55.76 534.944 55.4667 536.278 54.88C537.664 54.2933 538.864 53.4667 539.878 52.4C540.891 51.28 541.611 49.9733 542.038 48.48H542.998L551.878 50.96C550.918 54.16 549.531 56.8267 547.718 58.96C545.904 61.0933 543.691 62.6933 541.078 63.76C538.464 64.7733 535.424 65.28 531.958 65.28ZM571.158 65.28C566.625 65.28 562.731 64.24 559.478 62.16C556.278 60.0267 554.145 57.1467 553.078 53.52L562.918 51.04L563.878 51.28C564.305 52.7733 565.211 53.9467 566.598 54.8C568.038 55.6533 569.691 56.08 571.558 56.08C573.371 56.08 574.891 55.7333 576.118 55.04C577.345 54.2933 577.958 53.3333 577.958 52.16C577.958 51.1467 577.585 50.3467 576.838 49.76C576.091 49.1733 574.971 48.72 573.478 48.4L565.798 46.72C562.011 45.8667 559.078 44.4267 556.998 42.4C554.971 40.32 553.958 37.7867 553.958 34.8C553.958 32.24 554.678 30.0267 556.118 28.16C557.558 26.24 559.531 24.7467 562.038 23.68C564.598 22.6133 567.478 22.08 570.678 22.08C574.998 22.08 578.651 23.1467 581.638 25.28C584.678 27.36 586.678 30.2667 587.638 34L578.518 36L577.638 35.84C577.265 34.5067 576.358 33.4133 574.918 32.56C573.531 31.7067 571.958 31.28 570.198 31.28C568.598 31.28 567.238 31.5733 566.118 32.16C565.051 32.7467 564.518 33.5733 564.518 34.64C564.518 35.3333 564.811 36 565.398 36.64C566.038 37.2267 566.998 37.6533 568.278 37.92L575.958 39.68C580.065 40.64 583.185 42.0533 585.318 43.92C587.451 45.7333 588.518 48.2667 588.518 51.52C588.518 54.2933 587.771 56.72 586.278 58.8C584.785 60.88 582.731 62.48 580.118 63.6C577.505 64.72 574.518 65.28 571.158 65.28ZM192.36 135.28C187.24 135.28 182.707 134.08 178.76 131.68C174.813 129.227 171.72 125.813 169.48 121.44C167.293 117.013 166.2 111.867 166.2 106C166.2 100.133 167.32 95.0133 169.56 90.64C171.853 86.2133 175 82.8 179 80.4C183.053 77.9467 187.72 76.72 193 76.72C198.44 76.72 203.213 78.1067 207.32 80.88C211.427 83.6533 214.467 87.4667 216.44 92.32L206.92 95.12L206.04 94.96C204.707 92.4 202.893 90.4267 200.6 89.04C198.36 87.6533 195.827 86.96 193 86.96C189.907 86.96 187.133 87.7333 184.68 89.28C182.28 90.8267 180.387 93.0133 179 95.84C177.667 98.6667 177 102.053 177 106C177 109.893 177.72 113.28 179.16 116.16C180.6 118.987 182.573 121.173 185.08 122.72C187.587 124.267 190.467 125.04 193.72 125.04C195.8 125.04 197.933 124.56 200.12 123.6C202.307 122.587 204.12 121.067 205.56 119.04C207.053 117.013 207.8 114.48 207.8 111.44V110.8L210.76 112.24H193.72V102H217.08L218.2 103.12V134H208.36V122.8H211.96C210.52 125.733 208.733 128.133 206.6 130C204.52 131.813 202.253 133.147 199.8 134C197.347 134.853 194.867 135.28 192.36 135.28ZM224.6 134V93.36H234.6V103.04L231.96 103.6C233.24 100.4 235.187 97.8933 237.8 96.08C240.413 94.2667 243.427 93.36 246.84 93.36H250.6V102.88H245.24C243.213 102.88 241.453 103.307 239.96 104.16C238.52 105.013 237.4 106.267 236.6 107.92C235.8 109.52 235.4 111.44 235.4 113.68V134H224.6ZM270.209 135.28C266.049 135.28 262.369 134.373 259.169 132.56C256.023 130.693 253.543 128.133 251.729 124.88C249.916 121.627 249.009 117.893 249.009 113.68C249.009 109.467 249.916 105.733 251.729 102.48C253.543 99.2267 256.023 96.6933 259.169 94.88C262.369 93.0133 266.049 92.08 270.209 92.08C274.369 92.08 278.023 93.0133 281.169 94.88C284.369 96.6933 286.876 99.2267 288.689 102.48C290.503 105.733 291.409 109.467 291.409 113.68C291.409 117.893 290.503 121.627 288.689 124.88C286.876 128.133 284.369 130.693 281.169 132.56C278.023 134.373 274.369 135.28 270.209 135.28ZM270.209 125.76C272.343 125.76 274.183 125.28 275.729 124.32C277.276 123.307 278.476 121.893 279.329 120.08C280.183 118.267 280.609 116.133 280.609 113.68C280.609 111.227 280.183 109.093 279.329 107.28C278.476 105.467 277.276 104.08 275.729 103.12C274.183 102.107 272.343 101.6 270.209 101.6C268.076 101.6 266.236 102.107 264.689 103.12C263.143 104.08 261.943 105.467 261.089 107.28C260.236 109.093 259.809 111.227 259.809 113.68C259.809 116.133 260.236 118.267 261.089 120.08C261.943 121.893 263.143 123.307 264.689 124.32C266.236 125.28 268.076 125.76 270.209 125.76ZM334.818 93.36V134H324.818V124.32L327.458 123.76C326.551 126.16 325.271 128.213 323.618 129.92C322.018 131.627 320.151 132.96 318.018 133.92C315.938 134.827 313.618 135.28 311.058 135.28C308.231 135.28 305.618 134.667 303.218 133.44C300.818 132.16 298.898 130.293 297.458 127.84C296.071 125.333 295.378 122.267 295.378 118.64V93.36H306.178V115.2C306.178 117.44 306.471 119.36 307.058 120.96C307.698 122.507 308.605 123.68 309.778 124.48C310.951 125.28 312.365 125.68 314.018 125.68C315.298 125.68 316.711 125.333 318.258 124.64C319.858 123.947 321.218 122.693 322.338 120.88C323.458 119.067 324.018 116.48 324.018 113.12V93.36H334.818ZM364.45 135.28C361.357 135.28 358.61 134.64 356.21 133.36C353.81 132.08 351.837 130.453 350.29 128.48C348.797 126.507 347.757 124.48 347.17 122.4V104.8C347.757 102.72 348.797 100.72 350.29 98.8C351.837 96.8267 353.81 95.2267 356.21 94C358.61 92.72 361.357 92.08 364.45 92.08C368.183 92.08 371.517 93.0133 374.45 94.88C377.437 96.6933 379.783 99.2267 381.49 102.48C383.25 105.68 384.13 109.387 384.13 113.6C384.13 117.813 383.25 121.573 381.49 124.88C379.783 128.133 377.437 130.693 374.45 132.56C371.517 134.373 368.183 135.28 364.45 135.28ZM341.25 150V93.36H351.25V104.64L348.85 113.68L352.05 122.72V150H341.25ZM362.53 125.68C364.717 125.68 366.61 125.173 368.21 124.16C369.81 123.147 371.063 121.733 371.97 119.92C372.877 118.107 373.33 116.027 373.33 113.68C373.33 111.28 372.877 109.2 371.97 107.44C371.063 105.627 369.81 104.213 368.21 103.2C366.61 102.187 364.717 101.68 362.53 101.68C360.397 101.68 358.503 102.187 356.85 103.2C355.25 104.213 353.997 105.627 353.09 107.44C352.183 109.2 351.73 111.28 351.73 113.68C351.73 116.027 352.183 118.107 353.09 119.92C353.997 121.733 355.25 123.147 356.85 124.16C358.503 125.173 360.397 125.68 362.53 125.68Z" fill="url(#paint1_linear_2690_48)"/>
<defs>
<linearGradient id="paint0_linear_2690_48" x1="45.4923" y1="141" x2="96.5077" y2="0.999999" gradientUnits="userSpaceOnUse">
<stop stop-color="#1E4E4C"/>
<stop offset="1" stop-color="#45B47F"/>
</linearGradient>
<linearGradient id="paint1_linear_2690_48" x1="163" y1="104.246" x2="588.836" y2="73.852" gradientUnits="userSpaceOnUse">
<stop stop-color="#235D53"/>
<stop offset="1" stop-color="#42AD7B"/>
</linearGradient>
</defs>
</svg>
